<svg width="104" height="76" viewBox="0 0 104 76" fill="none" xmlns="http://www.w3.org/2000/svg">
<mask id="path-1-outside-1_205_211" maskUnits="userSpaceOnUse" x="30.6154" y="2.16483" width="68" height="74" fill="black">
<rect fill="white" x="30.6154" y="2.16483" width="68" height="74"/>
<path fill-rule="evenodd" clip-rule="evenodd" d="M93.1429 61.7858C92.3308 61.8435 91.5108 61.8729 90.684 61.8729C71.7308 61.8729 56.3662 46.4441 56.3662 27.4118C56.3662 18.9322 59.4161 11.168 64.4744 5.16483C46.6688 6.43066 32.6154 21.3367 32.6154 39.5389C32.6154 58.5712 47.9801 74 66.9333 74C77.4422 74 86.8478 69.2567 93.1429 61.7858Z"/>
</mask>
<path fill-rule="evenodd" clip-rule="evenodd" d="M93.1429 61.7858C92.3308 61.8435 91.5108 61.8729 90.684 61.8729C71.7308 61.8729 56.3662 46.4441 56.3662 27.4118C56.3662 18.9322 59.4161 11.168 64.4744 5.16483C46.6688 6.43066 32.6154 21.3367 32.6154 39.5389C32.6154 58.5712 47.9801 74 66.9333 74C77.4422 74 86.8478 69.2567 93.1429 61.7858Z" fill="url(#paint0_linear_205_211)"/>
<path d="M93.1429 61.7858L94.6723 63.0745L97.722 59.4552L93.0011 59.7908L93.1429 61.7858ZM64.4744 5.16483L66.0038 6.45356L69.0535 2.83425L64.3326 3.16987L64.4744 5.16483ZM93.0011 59.7908C92.2361 59.8452 91.4634 59.8729 90.684 59.8729V63.8729C91.5582 63.8729 92.4254 63.8419 93.2847 63.7808L93.0011 59.7908ZM90.684 59.8729C72.8432 59.8729 58.3662 45.3474 58.3662 27.4118H54.3662C54.3662 47.5408 70.6184 63.8729 90.684 63.8729V59.8729ZM58.3662 27.4118C58.3662 19.4204 61.2386 12.1089 66.0038 6.45356L62.945 3.87611C57.5936 10.2271 54.3662 18.4441 54.3662 27.4118H58.3662ZM34.6154 39.5389C34.6154 22.3867 47.8571 8.35123 64.6162 7.1598L64.3326 3.16987C45.4805 4.51009 30.6154 20.2868 30.6154 39.5389H34.6154ZM66.9333 72C49.0925 72 34.6154 57.4745 34.6154 39.5389H30.6154C30.6154 59.6679 46.8676 76 66.9333 76V72ZM91.6135 60.4971C85.6811 67.5376 76.826 72 66.9333 72V76C78.0583 76 88.0146 70.9758 94.6723 63.0745L91.6135 60.4971Z" fill="url(#paint1_linear_205_211)" mask="url(#path-1-outside-1_205_211)"/>
<path d="M20.2307 7.93747L17.642 2.54583C16.6523 0.484725 13.7653 0.484719 12.7757 2.54583L10.187 7.93747C10.0779 8.16461 9.87456 8.30886 9.65467 8.3417L3.86607 9.20629C1.61584 9.54238 0.792922 12.3269 2.35938 13.8964L6.54806 18.0932C6.7191 18.2645 6.80347 18.5199 6.76071 18.7762L5.7719 24.7021C5.40624 26.8936 7.67087 28.7003 9.71195 27.5973L14.8894 24.7994C15.0904 24.6908 15.3273 24.6908 15.5282 24.7994L20.7057 27.5973C22.7468 28.7002 25.0114 26.8936 24.6458 24.7021L23.657 18.7762C23.6142 18.5199 23.6986 18.2645 23.8696 18.0932L28.0583 13.8964C29.6248 12.3269 28.8018 9.54239 26.5516 9.20629L20.763 8.3417C20.5431 8.30886 20.3398 8.16461 20.2307 7.93747Z" fill="url(#paint2_linear_205_211)" stroke="url(#paint3_linear_205_211)" stroke-width="2"/>
<path d="M96.7427 33.2924L95.0438 29.8691C94.2651 28.3 92.0207 28.3 91.242 29.8691L89.5431 33.2924C89.5267 33.3255 89.4934 33.351 89.4519 33.357L85.6531 33.906C83.9197 34.1565 83.2117 36.2866 84.4789 37.515L87.2277 40.1797C87.2554 40.2065 87.2667 40.2435 87.2607 40.2784L86.6118 44.0409C86.3118 45.7802 88.1419 47.0799 89.6869 46.2722L93.0846 44.4957C93.1209 44.4767 93.1649 44.4767 93.2012 44.4957L96.5989 46.2722C98.1439 47.0799 99.974 45.7802 99.6741 44.0409L99.0251 40.2784C99.0191 40.2435 99.0304 40.2065 99.0581 40.1797L101.807 37.515C103.074 36.2866 102.366 34.1565 100.633 33.906L96.8339 33.357C96.7924 33.351 96.7591 33.3255 96.7427 33.2924Z" fill="url(#paint4_linear_205_211)" stroke="url(#paint5_linear_205_211)" stroke-width="2"/>
<defs>
<linearGradient id="paint0_linear_205_211" x1="69.248" y1="27.1086" x2="54.6454" y2="73.9656" gradientUnits="userSpaceOnUse">
<stop stop-color="#FFEFB8"/>
<stop offset="1" stop-color="#FFD600"/>
</linearGradient>
<linearGradient id="paint1_linear_205_211" x1="29.6969" y1="-5.33134" x2="83.266" y2="85.8314" gradientUnits="userSpaceOnUse">
<stop stop-color="#FFF2AF"/>
<stop offset="1" stop-color="#CEBA00"/>
</linearGradient>
<linearGradient id="paint2_linear_205_211" x1="18.6614" y1="9.71429" x2="8.42442" y2="26.6482" gradientUnits="userSpaceOnUse">
<stop stop-color="#FFF59F"/>
<stop offset="1" stop-color="#EDD500"/>
</linearGradient>
<linearGradient id="paint3_linear_205_211" x1="5.71434" y1="0.21978" x2="24.4344" y2="35.3543" gradientUnits="userSpaceOnUse">
<stop stop-color="#FFF6A6"/>
<stop offset="1" stop-color="#D1BC00"/>
</linearGradient>
<linearGradient id="paint4_linear_205_211" x1="95.4086" y1="34.5903" x2="89.0107" y2="45.5292" gradientUnits="userSpaceOnUse">
<stop stop-color="#FFF59F"/>
<stop offset="1" stop-color="#EDD500"/>
</linearGradient>
<linearGradient id="paint5_linear_205_211" x1="86.9121" y1="28.562" x2="98.5765" y2="51.1896" gradientUnits="userSpaceOnUse">
<stop stop-color="#FFF6A6"/>
<stop offset="1" stop-color="#D1BC00"/>
</linearGradient>
</defs>
</svg>
